<svg width="33" height="33" viewBox="0 0 33 33" fill="none" xmlns="http://www.w3.org/2000/svg">
<path d="M3.72402 28.8459H6.17532L21.2771 13.7226L18.8258 11.2679L3.72402 26.3911V28.8459ZM28.7623 11.1802L21.3208 3.8158L23.7721 1.361C24.4433 0.688856 25.268 0.352783 26.2462 0.352783C27.2244 0.352783 28.0485 0.688856 28.7185 1.361L31.1698 3.8158C31.841 4.48794 32.1912 5.29919 32.2203 6.24955C32.2495 7.19991 31.9285 8.01057 31.2573 8.68155L28.7623 11.1802ZM26.2234 13.7665L7.6636 32.3528H0.222168V24.9007L18.782 6.31443L26.2234 13.7665ZM20.0514 12.4952L18.8258 11.2679L21.2771 13.7226L20.0514 12.4952Z" fill="black"/>
</svg>
