<svg width="175" height="136" viewBox="0 0 175 136" fill="none" xmlns="http://www.w3.org/2000/svg">
<path d="M43.1765 2C43.1765 35.6882 38.6563 66.4309 32.0654 99.3856C29.7977 110.724 28.5274 97.1501 28.4706 93.1765C28.2528 77.9328 28.4706 62.6701 28.4706 47.4248C28.4706 41.9355 26.5639 31.5363 29.1242 26.183C34.0308 15.9237 44.1169 45.1396 44.4837 46.1177C46.7003 52.0287 67.7034 98.0613 72.5883 93.1765" stroke="black" stroke-width="3" stroke-linecap="round"/>
<path d="M2 93.1764H116.706" stroke="black" stroke-width="3" stroke-linecap="round"/>
<path d="M2 99.0587C2 118.929 7.41138 134.353 28.4706 134.353" stroke="black" stroke-width="3" stroke-linecap="round"/>
<path d="M87.2939 96.1177C91.9272 102.488 93.1763 114.688 93.1763 122.588" stroke="black" stroke-width="3" stroke-linecap="round"/>
<path d="M102 46.1176C102 70.2005 127.342 74.7022 144.484 63.2745C150.452 59.2957 155.907 54.1844 160.17 48.4052C161.381 46.7641 165.122 36.4521 166.706 35.6601C169.824 34.1012 166.706 42.6318 166.706 46.1176C166.706 52.2179 166.706 58.3181 166.706 64.4183C166.706 79.2331 166.706 94.0479 166.706 108.863C166.706 125.462 162.094 122.588 146.608 122.588C112.02 122.588 165.288 77.8593 172.588 69.6471" stroke="black" stroke-width="3" stroke-linecap="round"/>
</svg>
