<svg width="324" height="89" viewBox="0 0 324 89" fill="none" xmlns="http://www.w3.org/2000/svg">
<path d="M28.3334 2C28.3334 23.5443 25.4427 43.2049 21.2276 64.2801C19.7774 71.5311 18.965 62.8504 18.9287 60.3092C18.7894 50.5606 18.9287 40.7998 18.9287 31.0501C18.9287 27.5396 17.7093 20.8891 19.3467 17.4655C22.4846 10.9045 28.9348 29.5887 29.1694 30.2142C30.5869 33.9944 44.0189 63.4332 47.1428 60.3092" stroke="black" stroke-width="3" stroke-linecap="round"/>
<path d="M2 60.3092H75.3568" stroke="black" stroke-width="3" stroke-linecap="round"/>
<path d="M2 64.071C2 76.7785 5.46069 86.6424 18.9285 86.6424" stroke="black" stroke-width="3" stroke-linecap="round"/>
<path d="M56.5474 62.1902C59.5104 66.2644 60.3093 74.066 60.3093 79.1187" stroke="black" stroke-width="3" stroke-linecap="round"/>
<path d="M65.9521 30.2141C65.9521 45.6156 82.1589 48.4945 93.1213 41.1863C96.9381 38.6418 100.427 35.373 103.153 31.6771C103.927 30.6275 106.32 24.0328 107.333 23.5263C109.327 22.5294 107.333 27.9848 107.333 30.2141C107.333 34.1153 107.333 38.0165 107.333 41.9178C107.333 51.3921 107.333 60.8665 107.333 70.3409C107.333 80.9562 104.384 79.1186 94.4798 79.1186C72.36 79.1186 106.426 50.5136 111.095 45.2617" stroke="black" stroke-width="3" stroke-linecap="round"/>
<path d="M193.856 22.6904C184.738 22.6904 181.25 36.2097 178.809 43.3807C176.518 50.109 183.338 35.4157 183.616 34.9165C187.527 27.8767 191.225 21.3338 193.856 13.7036C197.211 3.97644 200.966 27.808 201.38 31.6771C201.625 33.9651 205.993 36.5292 207.023 39.6189" stroke="black" stroke-width="3" stroke-linecap="round"/>
<path d="M212.666 24.5713C217.286 25.1488 216.428 35.4212 216.428 38.5739C216.428 47.4514 226.512 41.934 229.177 36.9019C233.365 28.991 230.49 19.6839 234.192 35.021C236.1 42.9261 233.217 50.8766 242.761 52.7854" stroke="black" stroke-width="3" stroke-linecap="round"/>
<path d="M269.094 26.4522C265.688 11.1264 238.134 52.1505 257.181 52.7854C269.888 53.209 283.496 43.995 289.575 33.14C292.043 28.7339 291.665 21.4832 291.665 30.6321C291.665 36.6049 290.924 43.1006 291.77 49.0235C292.91 57.0028 287.226 44.7552 284.141 41.9177C274.794 33.3176 273.741 31.0547 286.336 30.0051C298.334 29.0052 309.902 24.6668 321.76 22.6903" stroke="black" stroke-width="3" stroke-linecap="round"/>
<path d="M121.267 21.1152C121.267 25.1592 120.979 29.7218 123.135 33.3371C126.009 38.1553 131.158 36.9928 133.977 32.8826C135.174 31.1359 135.983 29.3119 136.418 27.243C136.446 27.1075 137.044 24.2907 137.327 25.0882C138.183 27.505 137.63 30.8299 137.63 33.3371C137.63 34.2886 137.227 36.4693 137.933 37.1754" stroke="black" stroke-width="3" stroke-linecap="round"/>
<path d="M157.326 15.9639C159.019 21.7959 158.538 28.1511 158.538 34.1452" stroke="black" stroke-width="3" stroke-linecap="round"/>
<path d="M136.418 17.176C143.822 14.4706 152.299 14.8382 160.054 14.7686C165.383 14.7208 171.521 15.4454 176.72 14.1458" stroke="black" stroke-width="3" stroke-linecap="round"/>
</svg>
